<?xml version="1.0" encoding="iso-8859-1"?>
<!-- Generator: Adobe Illustrator 19.0.0, SVG Export Plug-In . SVG Version: 6.00 Build 0)  -->
<svg version="1.1" id="Capa_1" xmlns="http://www.w3.org/2000/svg" xmlns:xlink="http://www.w3.org/1999/xlink" x="0px" y="0px"
	 viewBox="0 0 512.002 512.002" style="enable-background:new 0 0 512.002 512.002;" xml:space="preserve">
<path style="fill:#7EC2DB;" d="M449.71,107.77L449,106c-17.213,0-204.006,0-311.133,0C84.969,245.909,92.709,350.31,85,417.89
	l144.712,26.392L256,326l26.67,120l47.085-8.587l45.64-8.324L502,406C494.74,342.33,503.52,242.29,449.71,107.77z"/>
<rect x="275.999" y="66" style="fill:#FFFFFF;" width="173" height="40"/>
<rect x="235.999" y="66" style="fill:#3A426B;" width="40" height="40"/>
<rect x="63.999" y="66" style="fill:#FFFFFF;" width="172" height="40"/>
<path d="M62,256c-5.52,0-10,4.48-10,10s4.48,10,10,10s10-4.48,10-10S67.52,256,62,256z"/>
<path d="M58.282,295.781c-5.51-0.431-10.323,3.672-10.761,9.177c-0.37,4.654-0.451,5.876-1.441,20.824
	c-0.607,9.162-1.557,23.499-3.128,46.991c-0.369,5.511,3.8,10.276,9.311,10.645c5.478,0.377,10.275-3.78,10.645-9.311
	c1.571-23.498,2.521-37.838,3.129-47.003c0.982-14.827,1.063-16.038,1.422-20.563C67.896,301.036,63.787,296.219,58.282,295.781z"/>
<path d="M508.603,356.541c-3.12-62.013-7.394-146.939-49.604-252.471V66c0-5.522-4.477-10-10-10c-17.488,0-368.576,0-385,0
	c-5.523,0-10,4.478-10,10v38.069C11.556,210.181,6.889,295.353,3.482,357.544c-0.982,17.93-1.831,33.415-3.417,47.322
	c-0.597,5.23,2.963,10.027,8.142,10.972l219.33,40c5.294,0.965,10.391-2.429,11.556-7.668l16.908-76.078l16.908,76.078
	c1.165,5.242,6.265,8.633,11.556,7.668l219.33-40c5.178-0.944,8.738-5.741,8.142-10.971
	C510.323,390.729,509.526,374.886,508.603,356.541z M439,96H286V76h153V96z M266,96h-20V76h20V96z M74,76h152v20H74
	C74,96,74,76,74,76z M290.344,434.435L265.761,323.83c-2.343-10.529-17.245-10.24-19.523,0l-24.582,110.605L20.879,397.819
	c1.089-12.104,1.814-25.339,2.573-39.182C26.735,298.722,31.239,216.973,70.807,116c16.861,0,145.224,0,171.319,0l-35.613,106.838
	c-1.747,5.239,1.085,10.902,6.325,12.649c5.237,1.745,10.902-1.086,12.649-6.325L256,137.623l30.513,91.539
	c1.747,5.24,7.41,8.072,12.649,6.325c5.24-1.747,8.071-7.41,6.325-12.649L269.874,116c61.384,0,136.833,0,172.318,0
	c39.307,100.357,43.432,181.83,46.436,241.546c0.747,14.833,1.412,28.062,2.497,40.272L290.344,434.435z"/>
<g>
</g>
<g>
</g>
<g>
</g>
<g>
</g>
<g>
</g>
<g>
</g>
<g>
</g>
<g>
</g>
<g>
</g>
<g>
</g>
<g>
</g>
<g>
</g>
<g>
</g>
<g>
</g>
<g>
</g>
</svg>
